# xmcd CD database file
#
# Track frame offsets:
#	150
#	25882
#	52565
#	74248
#	103665
#	123721
#	150426
#	175977
#	194984
#	221251
#
# Disc length: 3123 seconds
#
# Revision: 0
# Processed by: cddbd v1.5.2PL0 Copyright (c) Steve Scherf et al.
# Submitted via: CDex 1.51
#
DISCID=900c310a
DTITLE=A History of SCHEMA - The Connection compiled by Gerardo Frisina
DYEAR=2008
DGENRE=Jazz
TTITLE0=Om Mani Padme Hum
TTITLE1=J.L.K
TTITLE2=Mas eu qer ser
TTITLE3=I'll be your wings
TTITLE4=Lilemor
TTITLE5=Snap Count
TTITLE6=Original Untitled
TTITLE7=Night Lady
TTITLE8=Latin Seeds
TTITLE9=The Turk's Bolero
EXTD=YEAR: 2008
EXTT0=
EXTT1=
EXTT2=
EXTT3=
EXTT4=
EXTT5=
EXTT6=
EXTT7=
EXTT8=
EXTT9=
PLAYORDER=
